<svg width="976" height="250" viewBox="0 0 976 250" fill="none" xmlns="http://www.w3.org/2000/svg">
<path fill-rule="evenodd" clip-rule="evenodd" d="M230.304 172.55C256.566 146.288 256.566 103.709 230.304 77.4471C230.304 77.4471 160.128 4.99139 150.573 0.877224C150.126 0.684684 150.163 0.52316 150.193 0.393326C150.253 0.132899 150.283 -2.41062e-05 146.318 3.27912e-09C140.375 3.61324e-05 135.558 4.81734 135.558 10.7597V38.7829C135.558 44.7253 140.375 49.5426 146.318 49.5426H157.974C182.734 49.5426 202.806 66.6146 202.806 91.3746V158.623C202.806 183.383 182.734 200.455 157.974 200.455H146.318C140.375 200.455 135.558 205.272 135.558 211.214V239.238C135.558 240.701 135.856 242.149 136.435 243.493C138.785 248.951 145.115 251.47 150.573 249.12C160.128 245.006 230.304 172.55 230.304 172.55ZM114.442 38.7857V10.7625C114.442 9.29915 114.144 7.85118 113.565 6.50714C111.215 1.0492 104.885 -1.47018 99.4271 0.879968C89.8724 4.99413 19.6965 77.4499 19.6965 77.4499C-6.5655 103.712 -6.5655 146.291 19.6965 172.553C19.6965 172.553 89.8724 245.009 99.4271 249.123C100.771 249.702 102.219 250 103.682 250C109.625 250 114.442 245.183 114.442 239.24V211.217C114.442 205.275 109.625 200.457 103.682 200.457H92.026C67.266 200.457 47.194 183.385 47.194 158.625V91.3774C47.194 66.6173 67.266 49.5454 92.026 49.5454H103.682C109.625 49.5454 114.442 44.7281 114.442 38.7857Z" fill="white"/>
<path fill-rule="evenodd" clip-rule="evenodd" d="M446.411 83C446.411 46.5 422.411 28 381.911 28H320.661C319.161 28 317.911 29.25 317.911 30.75L319.411 114.5L317.911 200.25C317.911 201.75 319.161 203 320.661 203H346.911C348.411 203 349.661 201.75 349.661 200.25L348.661 139.5H382.161C421.661 139.5 446.411 119.5 446.411 83ZM416.661 83.5C416.661 106.75 402.661 116 384.161 116H348.411L349.411 51.5H383.161C404.411 51.5 416.661 61.75 416.661 83.5ZM580.018 138.25C580.018 97.5 557.268 71.25 516.768 71.25C476.268 71.25 453.018 98.25 453.018 139C453.018 179.75 476.268 206 516.768 206C557.268 206 580.018 179.25 580.018 138.25ZM483.768 139.25C483.768 108.75 494.518 92.75 516.518 92.5C538.268 92.5 549.018 108.5 549.018 139C549.018 169.75 538.518 184.75 516.768 184.75C494.768 184.75 483.768 169.5 483.768 139.25ZM627.375 203C628.875 203 630.125 201.75 630.125 200.25L629.875 140C631.375 111 650.375 97.25 674.375 97.25C676.375 97.25 678.375 97.25 679.875 97.5C681.375 97.5 682.625 96.5 682.625 95V77C682.625 75.5 681.375 74 679.875 73.75C678.125 73.5 675.875 73.25 673.875 73.25C655.625 73.25 638.625 81.25 629.125 97L629.875 77C629.875 75.5 628.625 74.25 627.125 74.25H602.375C600.875 74.25 599.625 75.5 599.625 77L600.625 138L599.625 200.25C599.625 201.75 600.875 203 602.375 203H627.375ZM772.233 180.75C773.733 180.5 774.983 181.5 774.983 182.75V198.25C774.983 199.75 773.733 201.5 772.233 201.75C766.233 203.75 759.233 205.25 752.483 205.25C732.233 205.25 713.733 195 713.733 166.25L713.983 96.75H699.983C698.483 96.75 697.233 95.5 697.233 94V77C697.233 75.5 698.483 74.25 699.983 74.25H713.983L713.483 44.75C713.483 43.25 714.733 42 716.233 42H741.483C742.983 42 744.233 43.25 744.233 44.75L743.983 74.25H772.483C773.983 74.25 775.233 75.5 775.233 77V94C775.233 95.5 773.983 96.75 772.483 96.75H743.733L743.983 165.5C743.983 178.5 749.233 182.5 758.733 182.5C763.983 182.5 768.733 181.75 772.233 180.75ZM915.84 200.25C915.84 201.75 914.59 203 913.09 203H888.09C886.59 203 885.34 201.75 885.34 200.25L885.84 185.25C877.09 198 863.59 205.5 846.34 205.5C810.84 205.5 791.84 176.5 791.84 139C791.84 101.75 812.34 71.75 846.84 71.75C863.84 71.75 877.09 78.5 885.84 90.75L885.34 77C885.34 75.5 886.59 74.25 888.09 74.25H913.09C914.59 74.25 915.84 75.5 915.84 77L914.84 138.25L915.84 200.25ZM855.09 93C833.09 92.75 822.59 109.5 822.59 137C822.59 167 833.34 184.25 854.59 184.25C874.59 184.25 886.34 169.25 886.59 139.5C886.84 109.75 875.59 93.25 855.09 93ZM975.947 200.25C975.947 201.75 974.697 203 973.197 203H948.197C946.697 203 945.447 201.75 945.447 200.25L946.697 115L945.447 30.75C945.447 29.25 946.697 28 948.197 28H973.197C974.697 28 975.947 29.25 975.947 30.75L974.697 115L975.947 200.25Z" fill="white"/>
</svg>
